<svg version="1.1" xmlns="http://www.w3.org/2000/svg" viewBox="-26.82227240914585 -8.842108293533398 45.75037663249836 19.180620470307264" fill="none" stroke="black" stroke-width="0.6%" vector-effect="non-scaling-stroke">
    <path d="M -25.82227 3.78925 L -3.51044 4.50898" />
    <path d="M 5.36599 9.33851 L -3.51044 9.05218" />
    <path d="M 14.50691 7.06414 L 5.36599 9.33851" />
    <path d="M 17.82231 4.61673 L 14.50691 7.06414" />
    <path d="M 17.9281 4.45885 A 5 0.77157 0 0 1 17.82231 4.61673" />
    <path d="M 13.53134 -6.19015 L 12.84271 -6.35259 L 12.93048 -6.41738 L 13.02012 -6.51328 A 5 0.77157 180 0 0 13.03627 -6.57525 A 5 0.77157 180 0 0 9.05937 -7.3305 L -6.80058 -7.84211 L -23.96672 -7.46073 L -25.82227 -6.09097" />
    <path d="M 13.02012 -6.31074 L 13.02012 -6.51328" />
    <path d="M 12.93048 -6.33188 L 12.93048 -6.41738" />
    <path d="M 13.53134 -6.19015 L 13.9512 -6.17661 L 14.55654 -6.15087 A 5 0.77157 0 0 1 17.9281 -5.42137 A 5 0.77157 0 0 1 17.82231 -5.26349 L 17.82231 4.61673" />
    <path d="M 14.50691 -2.81608 L 14.50691 7.06414" />
    <path d="M 17.82231 -5.26349 L 14.50691 -2.81608 L 5.36599 -0.54171 L -3.51044 -0.82804 L -3.51044 9.05218" />
    <path d="M 5.36599 -0.54171 L 5.36599 9.33851" />
    <path d="M 2.38636 -5.18102 L -3.51044 -0.82804" />
    <path d="M -25.82227 3.78925 L -25.82227 -6.09097" />
    <path d="M 2.38636 -5.18102 L -25.82227 -6.09097" />
    <path d="M 13.03627 -6.57525 L 13.03627 -6.30693" />
    <path d="M 17.9281 4.45885 L 17.9281 -5.42137" />
</svg>