<svg version="1.1" xmlns="http://www.w3.org/2000/svg" viewBox="-28.370707826315712 -8.606198698048749 46.567900422408 18.960496757684275" fill="none" stroke="black" stroke-width="0.6%" vector-effect="non-scaling-stroke">
    <path d="M -3.71256 4.70839 L -27.37071 4.10869 L -27.37071 -5.77628 L 1.05121 -5.05583 L -3.71256 -0.75739 L -3.71256 9.12759" />
    <path d="M 5.23098 9.3543 L -3.71256 9.12759" />
    <path d="M 5.23098 9.3543 L 13.77507 7.07176" />
    <path d="M 17.11465 4.05839 L 13.77507 7.07176" />
    <path d="M 17.19719 3.90839 A 6 0.90742 360 0 1 17.11465 4.05839" />
    <path d="M -25.87169 -7.12888 L -8.81814 -7.6062" />
    <path d="M -25.87169 -7.12888 L -27.37071 -5.77628" />
    <path d="M 5.23098 -0.53068 L 5.23098 9.3543" />
    <path d="M 5.23098 -0.53068 L -3.71256 -0.75739" />
    <path d="M 13.77507 -2.81322 L 13.77507 7.07176" />
    <path d="M 13.77507 -2.81322 L 5.23098 -0.53068" />
    <path d="M 17.11465 -5.82659 L 13.77507 -2.81322" />
    <path d="M 15.4823 -6.61174 A 6 0.90742 360 0 1 17.19719 -5.97659 A 6 0.90742 360 0 1 17.11465 -5.82659 L 17.11465 4.05839" />
    <path d="M 15.4823 -6.61174 A 6 0.90742 180 0 0 11.1067 -7.10113 L -8.81814 -7.6062" />
    <path d="M 17.19719 3.90839 L 17.19719 -5.97659" />
</svg>