<svg version="1.1" xmlns="http://www.w3.org/2000/svg" viewBox="-24.666311267241692 -8.606616214787348 40.384929555050654 19.250818947012725" fill="none" stroke="black" stroke-width="0.6%" vector-effect="non-scaling-stroke">
    <path d="M 14.62001 -5.32391 L 12.56848 -3.4564 L 12.56848 6.37377 L 1.69139 9.6442 L -1.11148 9.5405" />
    <path d="M 13.76911 -6.04322 A 5 0.91758 360 0 1 14.71862 -5.50524 A 5 0.91758 360 0 1 14.62001 -5.32391 L 14.62001 4.50626 A 5 0.91758 180 0 0 14.71862 4.32492 L 14.71862 -5.50524" />
    <path d="M 13.76911 -6.04322 L 13.77244 -6.04362 L 11.00534 -6.80788 L 11.00201 -6.80747" />
    <path d="M 7.71826 -7.23013 A 5 0.91758 360 0 1 11.00201 -6.80747" />
    <path d="M 7.71826 -7.23013 L -2.45798 -7.60662 L -23.10125 -7.03354 L -23.66631 -6.51917" />
    <path d="M 3.71181 -5.50627 L -23.66631 -6.51917" />
    <path d="M 3.71181 -5.50627 L 4.40794 -5.314" />
    <path d="M -1.11148 -0.28966 L 4.40794 -5.314" />
    <path d="M 1.69139 -0.18596 L -1.11148 -0.28966 L -1.11148 9.5405" />
    <path d="M 1.69139 -0.18596 L 12.56848 -3.4564" />
    <path d="M 14.62001 4.50626 L 12.56848 6.37377" />
    <path d="M 1.69139 -0.18596 L 1.69139 9.6442" />
    <path d="M 3.71181 -5.50627 L 3.71181 -4.68031" />
    <path d="M -23.66631 3.311 L -23.66631 -6.51917" />
    <path d="M -23.66631 3.311 L -1.11148 4.14545" />
    <path d="M 13.77244 -6.04237 L 13.77244 -6.04362" />
</svg>